<?xml version="1.0" standalone="no"?>
<!DOCTYPE svg PUBLIC "-//W3C//DTD SVG 20010904//EN"
 "http://www.w3.org/TR/2001/REC-SVG-20010904/DTD/svg10.dtd">
<svg version="1.0" xmlns="http://www.w3.org/2000/svg"
 width="853.000000pt" height="853.000000pt" viewBox="0 0 853.000000 853.000000"
 preserveAspectRatio="xMidYMid meet">
<metadata>
Created by potrace 1.14, written by Peter Selinger 2001-2017
</metadata>
<g transform="translate(0.000000,853.000000) scale(0.100000,-0.100000)"
fill="#000000" stroke="none">
<path d="M4089 8526 c-2 -2 -31 -6 -64 -9 -98 -9 -205 -26 -292 -47 -46 -11
-93 -22 -105 -24 -51 -10 -200 -61 -303 -104 -415 -173 -749 -451 -995 -827
-63 -97 -158 -289 -200 -405 -35 -94 -88 -292 -96 -355 -3 -22 -7 -46 -10 -54
-18 -55 -26 -459 -11 -596 11 -100 17 -148 23 -165 3 -8 8 -33 11 -55 10 -75
71 -271 118 -377 133 -304 335 -552 647 -791 42 -32 242 -164 298 -196 128
-74 449 -225 625 -294 105 -42 303 -113 440 -160 138 -47 297 -103 355 -125
865 -332 1342 -739 1479 -1265 10 -40 22 -93 25 -118 4 -25 9 -59 12 -75 9
-41 8 -269 0 -328 -59 -424 -282 -760 -667 -1008 -82 -54 -224 -130 -304 -163
-106 -45 -320 -111 -420 -131 -11 -2 -29 -6 -40 -8 -11 -2 -40 -7 -65 -11 -25
-4 -53 -9 -63 -11 -113 -21 -425 -24 -571 -5 -173 22 -384 80 -536 148 -112
50 -127 57 -215 106 -258 142 -515 343 -822 644 -52 51 -99 90 -106 87 -7 -3
-84 -91 -172 -196 -88 -104 -169 -200 -180 -212 -11 -12 -40 -46 -65 -76 -25
-30 -58 -70 -75 -88 -16 -19 -33 -39 -37 -46 -10 -18 244 -275 381 -386 24
-19 48 -40 55 -45 6 -6 43 -34 81 -63 39 -28 75 -55 80 -60 28 -23 142 -96
235 -152 365 -218 767 -368 1170 -435 226 -37 259 -40 515 -40 249 0 349 7
515 35 30 5 73 12 95 15 22 4 48 8 57 11 10 3 30 7 45 10 92 15 349 97 491
156 164 68 440 227 529 304 12 10 34 28 49 39 131 94 331 316 452 499 46 71
192 343 193 363 1 5 6 22 13 38 48 116 118 390 132 515 3 30 9 80 14 110 8 58
6 487 -3 530 -3 14 -8 48 -11 77 -9 78 -55 292 -76 353 -90 261 -175 427 -312
612 -91 123 -226 265 -347 368 -30 25 -59 50 -65 56 -35 33 -283 204 -295 204
-5 0 -11 4 -13 8 -3 7 -29 24 -133 82 -47 27 -314 160 -365 182 -19 9 -55 25
-80 36 -120 53 -352 139 -610 227 -368 125 -605 219 -810 322 -91 46 -174 89
-185 96 -150 95 -189 122 -240 161 -63 49 -159 140 -210 197 -136 154 -234
374 -261 584 -9 75 -11 326 -2 380 75 454 396 815 903 1017 55 22 107 42 115
43 8 2 52 13 98 25 150 38 265 49 457 46 136 -3 206 -9 285 -25 200 -42 430
-131 612 -238 129 -76 371 -249 478 -343 113 -98 151 -131 198 -175 30 -27 58
-51 62 -53 4 -2 30 23 56 54 27 32 69 80 93 108 59 69 77 91 136 161 28 33 55
65 60 71 6 6 30 35 55 64 25 30 66 78 92 109 46 54 46 55 27 72 -11 9 -50 46
-87 81 -83 77 -177 159 -257 224 -33 27 -67 54 -75 61 -8 7 -33 26 -55 42 -22
17 -44 34 -50 39 -31 25 -212 145 -285 189 -273 163 -637 300 -900 339 -25 3
-52 7 -60 9 -8 2 -37 6 -65 10 -27 3 -63 9 -80 11 -36 6 -511 14 -516 10z"/>
</g>
</svg>
